<mxfile host="app.diagrams.net" agent="Mozilla/5.0 (Windows NT 10.0; Win64; x64) AppleWebKit/537.36 (KHTML, like Gecko) Chrome/130.0.0.0 Safari/537.36" version="24.8.4">
  <diagram name="Страница — 1" id="JM6qeIh3hI8gErD9VrhA">
    <mxGraphModel dx="2049" dy="1054" grid="0" gridSize="10" guides="1" tooltips="1" connect="1" arrows="1" fold="1" page="1" pageScale="1" pageWidth="827" pageHeight="1169" math="0" shadow="0">
      <root>
        <mxCell id="0" />
        <mxCell id="1" parent="0" />
        <mxCell id="iG9QZcq2WIOJx5gpD7f4-3" value="" style="edgeStyle=orthogonalEdgeStyle;rounded=0;orthogonalLoop=1;jettySize=auto;html=1;" parent="1" source="iG9QZcq2WIOJx5gpD7f4-1" target="iG9QZcq2WIOJx5gpD7f4-2" edge="1">
          <mxGeometry relative="1" as="geometry" />
        </mxCell>
        <mxCell id="iG9QZcq2WIOJx5gpD7f4-1" value="Start" style="ellipse;whiteSpace=wrap;html=1;fillColor=#d5e8d4;strokeColor=#82b366;" parent="1" vertex="1">
          <mxGeometry width="120" height="80" as="geometry" />
        </mxCell>
        <mxCell id="iG9QZcq2WIOJx5gpD7f4-5" value="" style="edgeStyle=orthogonalEdgeStyle;rounded=0;orthogonalLoop=1;jettySize=auto;html=1;" parent="1" source="iG9QZcq2WIOJx5gpD7f4-2" target="iG9QZcq2WIOJx5gpD7f4-4" edge="1">
          <mxGeometry relative="1" as="geometry" />
        </mxCell>
        <mxCell id="iG9QZcq2WIOJx5gpD7f4-2" value="drib10" style="shape=process;whiteSpace=wrap;html=1;backgroundOutline=1;" parent="1" vertex="1">
          <mxGeometry y="100" width="120" height="60" as="geometry" />
        </mxCell>
        <mxCell id="iG9QZcq2WIOJx5gpD7f4-7" value="" style="edgeStyle=orthogonalEdgeStyle;rounded=0;orthogonalLoop=1;jettySize=auto;html=1;" parent="1" source="iG9QZcq2WIOJx5gpD7f4-4" target="iG9QZcq2WIOJx5gpD7f4-6" edge="1">
          <mxGeometry relative="1" as="geometry" />
        </mxCell>
        <mxCell id="iG9QZcq2WIOJx5gpD7f4-4" value="prostdribv10" style="shape=process;whiteSpace=wrap;html=1;backgroundOutline=1;" parent="1" vertex="1">
          <mxGeometry y="180" width="120" height="60" as="geometry" />
        </mxCell>
        <mxCell id="iG9QZcq2WIOJx5gpD7f4-9" value="" style="edgeStyle=orthogonalEdgeStyle;rounded=0;orthogonalLoop=1;jettySize=auto;html=1;" parent="1" source="iG9QZcq2WIOJx5gpD7f4-6" target="iG9QZcq2WIOJx5gpD7f4-8" edge="1">
          <mxGeometry relative="1" as="geometry" />
        </mxCell>
        <mxCell id="iG9QZcq2WIOJx5gpD7f4-6" value="double decimal = 0.77" style="whiteSpace=wrap;html=1;" parent="1" vertex="1">
          <mxGeometry x="100" y="280" width="120" height="30" as="geometry" />
        </mxCell>
        <mxCell id="iG9QZcq2WIOJx5gpD7f4-11" value="" style="edgeStyle=orthogonalEdgeStyle;rounded=0;orthogonalLoop=1;jettySize=auto;html=1;" parent="1" source="iG9QZcq2WIOJx5gpD7f4-8" target="iG9QZcq2WIOJx5gpD7f4-10" edge="1">
          <mxGeometry relative="1" as="geometry" />
        </mxCell>
        <mxCell id="iG9QZcq2WIOJx5gpD7f4-8" value="cout &amp;lt;&amp;lt; &quot;Десятковий дріб у звичайний: &quot;" style="shape=parallelogram;perimeter=parallelogramPerimeter;whiteSpace=wrap;html=1;fixedSize=1;" parent="1" vertex="1">
          <mxGeometry x="35" y="330" width="250" height="30" as="geometry" />
        </mxCell>
        <mxCell id="iG9QZcq2WIOJx5gpD7f4-13" value="" style="edgeStyle=orthogonalEdgeStyle;rounded=0;orthogonalLoop=1;jettySize=auto;html=1;" parent="1" source="iG9QZcq2WIOJx5gpD7f4-10" target="iG9QZcq2WIOJx5gpD7f4-12" edge="1">
          <mxGeometry relative="1" as="geometry" />
        </mxCell>
        <mxCell id="iG9QZcq2WIOJx5gpD7f4-10" value="drib10(decimal)" style="whiteSpace=wrap;html=1;" parent="1" vertex="1">
          <mxGeometry x="100" y="370" width="120" height="25" as="geometry" />
        </mxCell>
        <mxCell id="iG9QZcq2WIOJx5gpD7f4-15" value="" style="edgeStyle=orthogonalEdgeStyle;rounded=0;orthogonalLoop=1;jettySize=auto;html=1;" parent="1" source="iG9QZcq2WIOJx5gpD7f4-12" target="iG9QZcq2WIOJx5gpD7f4-14" edge="1">
          <mxGeometry relative="1" as="geometry" />
        </mxCell>
        <mxCell id="iG9QZcq2WIOJx5gpD7f4-12" value="cout &amp;lt;&amp;lt; &quot;Звичайний дріб у десятковий: &quot;" style="shape=parallelogram;perimeter=parallelogramPerimeter;whiteSpace=wrap;html=1;fixedSize=1;" parent="1" vertex="1">
          <mxGeometry x="35" y="410" width="250" height="30" as="geometry" />
        </mxCell>
        <mxCell id="iG9QZcq2WIOJx5gpD7f4-17" value="" style="edgeStyle=orthogonalEdgeStyle;rounded=0;orthogonalLoop=1;jettySize=auto;html=1;" parent="1" source="iG9QZcq2WIOJx5gpD7f4-14" target="iG9QZcq2WIOJx5gpD7f4-16" edge="1">
          <mxGeometry relative="1" as="geometry" />
        </mxCell>
        <mxCell id="iG9QZcq2WIOJx5gpD7f4-14" value="cout &amp;lt;&amp;lt; prostdribv10(6, 7) &amp;lt;&amp;lt; endl" style="shape=parallelogram;perimeter=parallelogramPerimeter;whiteSpace=wrap;html=1;fixedSize=1;" parent="1" vertex="1">
          <mxGeometry x="35" y="460" width="250" height="30" as="geometry" />
        </mxCell>
        <mxCell id="iG9QZcq2WIOJx5gpD7f4-19" value="" style="edgeStyle=orthogonalEdgeStyle;rounded=0;orthogonalLoop=1;jettySize=auto;html=1;" parent="1" source="iG9QZcq2WIOJx5gpD7f4-16" target="iG9QZcq2WIOJx5gpD7f4-18" edge="1">
          <mxGeometry relative="1" as="geometry" />
        </mxCell>
        <mxCell id="iG9QZcq2WIOJx5gpD7f4-16" value="cout &amp;lt;&amp;lt; &quot;Звичайний дріб у десятковий з точною точністю: &quot;" style="shape=parallelogram;perimeter=parallelogramPerimeter;whiteSpace=wrap;html=1;fixedSize=1;" parent="1" vertex="1">
          <mxGeometry y="520" width="355" height="30" as="geometry" />
        </mxCell>
        <mxCell id="iG9QZcq2WIOJx5gpD7f4-21" value="" style="edgeStyle=orthogonalEdgeStyle;rounded=0;orthogonalLoop=1;jettySize=auto;html=1;" parent="1" source="iG9QZcq2WIOJx5gpD7f4-18" target="iG9QZcq2WIOJx5gpD7f4-20" edge="1">
          <mxGeometry relative="1" as="geometry" />
        </mxCell>
        <mxCell id="iG9QZcq2WIOJx5gpD7f4-18" value="cout &amp;lt;&amp;lt; prostdribv10(1, 2, 3000) &amp;lt;&amp;lt; endl" style="shape=parallelogram;perimeter=parallelogramPerimeter;whiteSpace=wrap;html=1;fixedSize=1;" parent="1" vertex="1">
          <mxGeometry x="52.5" y="570" width="250" height="30" as="geometry" />
        </mxCell>
        <mxCell id="iG9QZcq2WIOJx5gpD7f4-20" value="End" style="ellipse;whiteSpace=wrap;html=1;fillColor=#f8cecc;strokeColor=#b85450;" parent="1" vertex="1">
          <mxGeometry x="117.5" y="620" width="120" height="80" as="geometry" />
        </mxCell>
        <mxCell id="iG9QZcq2WIOJx5gpD7f4-24" value="" style="edgeStyle=orthogonalEdgeStyle;rounded=0;orthogonalLoop=1;jettySize=auto;html=1;" parent="1" source="iG9QZcq2WIOJx5gpD7f4-22" target="iG9QZcq2WIOJx5gpD7f4-23" edge="1">
          <mxGeometry relative="1" as="geometry" />
        </mxCell>
        <mxCell id="iG9QZcq2WIOJx5gpD7f4-22" value="drib10 (double decimal)" style="ellipse;whiteSpace=wrap;html=1;fillColor=#d5e8d4;strokeColor=#82b366;" parent="1" vertex="1">
          <mxGeometry x="530" width="120" height="80" as="geometry" />
        </mxCell>
        <mxCell id="iG9QZcq2WIOJx5gpD7f4-26" value="" style="edgeStyle=orthogonalEdgeStyle;rounded=0;orthogonalLoop=1;jettySize=auto;html=1;" parent="1" source="iG9QZcq2WIOJx5gpD7f4-23" target="iG9QZcq2WIOJx5gpD7f4-25" edge="1">
          <mxGeometry relative="1" as="geometry" />
        </mxCell>
        <mxCell id="iG9QZcq2WIOJx5gpD7f4-23" value="&lt;div&gt;&lt;span style=&quot;background-color: initial;&quot;&gt;int precision = 1000000;&lt;/span&gt;&lt;/div&gt;&lt;div&gt;int znam = precision;&lt;/div&gt;&lt;div&gt;int chyseln = round(decimal * precision);&lt;/div&gt;" style="rounded=0;whiteSpace=wrap;html=1;" parent="1" vertex="1">
          <mxGeometry x="472.5" y="100" width="235" height="60" as="geometry" />
        </mxCell>
        <mxCell id="iG9QZcq2WIOJx5gpD7f4-28" value="" style="edgeStyle=orthogonalEdgeStyle;rounded=0;orthogonalLoop=1;jettySize=auto;html=1;" parent="1" source="iG9QZcq2WIOJx5gpD7f4-25" target="iG9QZcq2WIOJx5gpD7f4-27" edge="1">
          <mxGeometry relative="1" as="geometry" />
        </mxCell>
        <mxCell id="iG9QZcq2WIOJx5gpD7f4-25" value="int nsd = 1" style="rounded=0;whiteSpace=wrap;html=1;" parent="1" vertex="1">
          <mxGeometry x="551.25" y="190" width="77.5" height="20" as="geometry" />
        </mxCell>
        <mxCell id="iG9QZcq2WIOJx5gpD7f4-30" value="" style="edgeStyle=orthogonalEdgeStyle;rounded=0;orthogonalLoop=1;jettySize=auto;html=1;" parent="1" source="iG9QZcq2WIOJx5gpD7f4-27" target="iG9QZcq2WIOJx5gpD7f4-29" edge="1">
          <mxGeometry relative="1" as="geometry" />
        </mxCell>
        <mxCell id="iG9QZcq2WIOJx5gpD7f4-27" value="for (int i = 1; i &amp;lt;= chyseln &amp;amp;&amp;amp; i &amp;lt;= znam; i++)" style="rhombus;whiteSpace=wrap;html=1;" parent="1" vertex="1">
          <mxGeometry x="465" y="240" width="250" height="100" as="geometry" />
        </mxCell>
        <mxCell id="iG9QZcq2WIOJx5gpD7f4-32" style="edgeStyle=orthogonalEdgeStyle;rounded=0;orthogonalLoop=1;jettySize=auto;html=1;exitX=0;exitY=0.5;exitDx=0;exitDy=0;entryX=0.5;entryY=0;entryDx=0;entryDy=0;" parent="1" source="iG9QZcq2WIOJx5gpD7f4-29" target="iG9QZcq2WIOJx5gpD7f4-31" edge="1">
          <mxGeometry relative="1" as="geometry" />
        </mxCell>
        <mxCell id="iG9QZcq2WIOJx5gpD7f4-36" style="edgeStyle=orthogonalEdgeStyle;rounded=0;orthogonalLoop=1;jettySize=auto;html=1;exitX=1;exitY=0.5;exitDx=0;exitDy=0;" parent="1" source="iG9QZcq2WIOJx5gpD7f4-29" edge="1">
          <mxGeometry relative="1" as="geometry">
            <mxPoint x="590" y="220" as="targetPoint" />
            <Array as="points">
              <mxPoint x="751" y="410" />
            </Array>
          </mxGeometry>
        </mxCell>
        <mxCell id="iG9QZcq2WIOJx5gpD7f4-38" value="" style="edgeStyle=orthogonalEdgeStyle;rounded=0;orthogonalLoop=1;jettySize=auto;html=1;" parent="1" source="iG9QZcq2WIOJx5gpD7f4-29" target="iG9QZcq2WIOJx5gpD7f4-37" edge="1">
          <mxGeometry relative="1" as="geometry" />
        </mxCell>
        <mxCell id="iG9QZcq2WIOJx5gpD7f4-29" value="if (chyseln % i == 0 &amp;amp;&amp;amp; znam % i == 0)" style="rhombus;whiteSpace=wrap;html=1;" parent="1" vertex="1">
          <mxGeometry x="490" y="370" width="200" height="80" as="geometry" />
        </mxCell>
        <mxCell id="iG9QZcq2WIOJx5gpD7f4-31" value="nsd = i" style="rounded=0;whiteSpace=wrap;html=1;" parent="1" vertex="1">
          <mxGeometry x="410" y="440" width="50" height="20" as="geometry" />
        </mxCell>
        <mxCell id="iG9QZcq2WIOJx5gpD7f4-33" value="Yes" style="text;html=1;align=center;verticalAlign=middle;resizable=0;points=[];autosize=1;strokeColor=none;fillColor=none;" parent="1" vertex="1">
          <mxGeometry x="440" y="390" width="40" height="30" as="geometry" />
        </mxCell>
        <mxCell id="iG9QZcq2WIOJx5gpD7f4-35" value="No" style="text;html=1;align=center;verticalAlign=middle;resizable=0;points=[];autosize=1;strokeColor=none;fillColor=none;" parent="1" vertex="1">
          <mxGeometry x="690" y="390" width="40" height="30" as="geometry" />
        </mxCell>
        <mxCell id="iG9QZcq2WIOJx5gpD7f4-40" value="" style="edgeStyle=orthogonalEdgeStyle;rounded=0;orthogonalLoop=1;jettySize=auto;html=1;" parent="1" source="iG9QZcq2WIOJx5gpD7f4-37" target="iG9QZcq2WIOJx5gpD7f4-39" edge="1">
          <mxGeometry relative="1" as="geometry" />
        </mxCell>
        <mxCell id="iG9QZcq2WIOJx5gpD7f4-37" value="&lt;div&gt;chyseln /= nsd;&lt;/div&gt;&lt;div&gt;znam /= nsd;&lt;/div&gt;" style="whiteSpace=wrap;html=1;" parent="1" vertex="1">
          <mxGeometry x="530" y="470" width="120" height="50" as="geometry" />
        </mxCell>
        <mxCell id="iG9QZcq2WIOJx5gpD7f4-39" value="cout &amp;lt;&amp;lt; &quot;Звичайний дріб: &quot; &amp;lt;&amp;lt; chyseln &amp;lt;&amp;lt; &quot;/&quot; &amp;lt;&amp;lt; znam &amp;lt;&amp;lt; endl" style="shape=parallelogram;perimeter=parallelogramPerimeter;whiteSpace=wrap;html=1;fixedSize=1;" parent="1" vertex="1">
          <mxGeometry x="380" y="550" width="410" height="60" as="geometry" />
        </mxCell>
        <mxCell id="iG9QZcq2WIOJx5gpD7f4-43" value="" style="edgeStyle=orthogonalEdgeStyle;rounded=0;orthogonalLoop=1;jettySize=auto;html=1;" parent="1" source="iG9QZcq2WIOJx5gpD7f4-41" target="iG9QZcq2WIOJx5gpD7f4-42" edge="1">
          <mxGeometry relative="1" as="geometry" />
        </mxCell>
        <mxCell id="iG9QZcq2WIOJx5gpD7f4-41" value="prostdribv10&lt;br&gt;(int chyseln,&lt;br&gt;int znam,&lt;br&gt;int precision = 1)" style="ellipse;whiteSpace=wrap;html=1;fillColor=#d5e8d4;strokeColor=#82b366;" parent="1" vertex="1">
          <mxGeometry x="1030" width="120" height="80" as="geometry" />
        </mxCell>
        <mxCell id="iG9QZcq2WIOJx5gpD7f4-45" value="" style="edgeStyle=orthogonalEdgeStyle;rounded=0;orthogonalLoop=1;jettySize=auto;html=1;" parent="1" source="iG9QZcq2WIOJx5gpD7f4-42" target="iG9QZcq2WIOJx5gpD7f4-44" edge="1">
          <mxGeometry relative="1" as="geometry" />
        </mxCell>
        <mxCell id="iG9QZcq2WIOJx5gpD7f4-42" value="&amp;nbsp;double result = static_cast&amp;lt;double&amp;gt;(chyseln) / znam" style="rounded=0;whiteSpace=wrap;html=1;" parent="1" vertex="1">
          <mxGeometry x="935" y="115" width="310" height="30" as="geometry" />
        </mxCell>
        <mxCell id="iG9QZcq2WIOJx5gpD7f4-44" value="return round(result * precision) / precision" style="rounded=0;whiteSpace=wrap;html=1;" parent="1" vertex="1">
          <mxGeometry x="972.5" y="170" width="235" height="30" as="geometry" />
        </mxCell>
      </root>
    </mxGraphModel>
  </diagram>
</mxfile>
